#N canvas -8 -8 1440 818 10;
#X declare -lib mrpeach;
#X obj 1274 82 import mrpeach;
#X obj 1053 495 packOSC;
#X obj 1026 524 udpsend;
#X msg 1045 402 disconnect;
#X obj 1026 347 loadbang;
#X obj 1024 58 dumpOSC 9001;
#X msg 1026 377 connect localhost 9003;
#X text 1024 15 Communication avec l'Application Java. \; Réception
de la vitesse de lecture \; et des effets sur la bande-son.;
#X obj 1024 89 routeOSC /audio/speed;
#X obj 1024 118 unpack f f f;
#X obj 291 54 bng 15 250 50 0 empty empty empty 17 7 0 10 -262144 -1
-1;
#X obj 291 82 openpanel;
#X obj 99 196 soundfiler;
#X floatatom 99 233 12 0 0 0 - - -;
#X obj 354 196 loadbang;
#X obj 354 226 samplerate~;
#X floatatom 354 256 12 0 0 0 - - -;
#X obj 100 301 expr $f2 / $f1;
#X floatatom 128 344 12 0 0 0 - - -;
#X obj 100 515 phasor~;
#X obj 125 263 s sampleSize;
#X obj 100 625 *~;
#X text 230 338 Delta t entre les échantillons. \; Vitesse à laquelle
on va lire \; dans le tableau arraySound avec \; le phasor~.;
#X text 433 218 Fréquence d'échantillonnage \; de Pure Data par défaut.
;
#X text 179 233 Nombre d'échantillons.;
#X text 168 189 Lire le tableau arraySound \; et créer un fichier
binaire.;
#X text 136 613 Multiplier un signal binaire audio \; avec un nombre
\, ici le nombre \; d'échantillon de la bande-son.;
#X obj 137 556 r sampleSize;
#X floatatom 137 584 12 0 0 0 - - -;
#X text 155 476 Produit un signal en dent \; de scie à une fréquence
\; spécifique. Permet de lire \; dans un tableau à un certaine \;
vitesse(inlet). Outlet est un signal.;
#X obj 100 766 dac~;
#X text 136 766 Sortie audio en stéréo;
#N canvas 0 22 450 278 (subpatch) 0;
#X array arraySoundtrack 2.98786e+007 float 0;
#X coords 0 1 2.98786e+007 -1 200 140 1;
#X restore 617 39 graph;
#X msg 99 146 read -resize \$1 arraySoundtrack;
#X text 299 134 Lire le fichier \$1 et le stocker \; dans le tableau
arraySoundtrack. \; Ajuster la taille du tableau -resize.;
#X obj 100 728 tabread4~ arraySoundtrack;
#X obj 1275 107 loadbang;
#X msg 1275 137 \; pd dsp 1;
#X obj 284 728 snapshot~;
#X text 1024 301 Connexion avec le patch video_slave. \; Envoie de
la vitesse courante de lecture \; afin de sychroniser le son et la
vidéo.;
#X text 349 716 Caputre de l'état d'avancement \; de la lecture dans
arraySoundtrack \; toutes les 10ms.;
#X floatatom 284 802 12 0 0 0 - - -;
#X obj 372 770 r sampleSize;
#X obj 324 841 /;
#X floatatom 372 801 12 0 0 0 - - -;
#X text 358 833 Convertir la position de \; lecture entre [0 \, 1]
;
#X floatatom 324 878 12 0 0 0 - - -;
#X obj 411 878 s currentPos;
#X obj 620 182 hsl 195 15 0 1 0 0 empty currentPos empty -2 -8 0 10
-262144 -1 -1 19205 1;
#X text 822 182 Position de lecture;
#X floatatom 1024 252 5 0 0 0 - - -;
#X floatatom 1058 198 5 0 0 0 - - -;
#X floatatom 1093 146 5 0 0 0 - - -;
#X obj 1024 277 s speedOldRangeA;
#X text 1062 252 speedOldRangeA;
#X text 1095 198 speedOldRangeB;
#X obj 1058 224 s speedOldRangeB;
#X obj 128 374 s originalSpeed;
#X obj 620 267 r originalSpeed;
#X floatatom 620 296 12 0 0 0 - - -;
#X obj 620 330 * -2;
#X obj 787 356 * 2;
#X floatatom 620 368 12 0 0 0 - - -;
#X floatatom 787 394 12 0 0 0 - - -;
#X text 618 207 Configuration de la valeur min et max \; pour le slider
de la vitesse. \; Vitesse min = -2 * vitesse originale. \; Vitesse
max = 2 * vitesse originale.;
#X obj 620 437 pack f f;
#X msg 620 468 range \$1 \$2;
#X obj 623 497 hsl 195 15 -0.00295194 0.00295194 0 0 currentSpeed newSpeed
empty -2 -8 0 10 -262144 -1 -1 0 1;
#X floatatom 620 522 15 0 0 0 - - -;
#X obj 127 417 r currentSpeed;
#X text 1131 146 speedReceived;
#X floatatom 127 446 12 0 0 0 - - -;
#X text 221 417 Vitesse de lecture actuelle;
#X obj 641 399 s speedNewRangeA;
#X obj 787 428 s speedNewRangeB;
#X obj 1093 171 s speedReceived;
#X obj 761 585 r speedNewRangeA;
#X obj 636 585 r speedNewRangeB;
#X floatatom 636 613 12 0 0 0 - - -;
#X floatatom 761 613 12 0 0 0 - - -;
#X obj 746 639 -;
#X obj 1003 585 r speedOldRangeA;
#X obj 878 585 r speedOldRangeB;
#X floatatom 878 613 12 0 0 0 - - -;
#X floatatom 1003 613 12 0 0 0 - - -;
#X obj 878 639 -;
#X floatatom 746 665 12 0 0 0 - - -;
#X floatatom 878 665 12 0 0 0 - - -;
#X obj 807 696 /;
#X floatatom 807 724 12 0 0 0 - - -;
#X floatatom 1200 600 12 0 0 0 - - -;
#X obj 1301 572 r speedOldRangeA;
#X floatatom 1301 598 12 0 0 0 - - -;
#X obj 1286 625 -;
#X obj 807 752 s scale;
#X floatatom 1286 661 12 0 0 0 - - -;
#X obj 1231 692 *;
#X obj 1125 636 r scale;
#X floatatom 1125 661 12 0 0 0 - - -;
#X floatatom 1231 720 12 0 0 0 - - -;
#X obj 1061 692 r speedNewRangeA;
#X floatatom 1061 721 12 0 0 0 - - -;
#X obj 1179 750 +;
#X floatatom 1179 777 12 0 0 0 - - -;
#X obj 1179 803 s newSpeed;
#X text 1260 776 Nouvelle vitesse de \; lecture envoyé au \; slider.
;
#X text 826 494 Vitesse de lecture acutelle \; Input = newSpeed \;
Output = currentSpeed;
#X obj 1200 572 r speedReceived;
#X obj 1277 184 loadbang;
#X obj 1277 208 tgl 15 0 empty empty empty 17 7 0 10 -262144 -1 -1
1 1;
#X obj 1277 262 s tick;
#X obj 1277 232 metro 10;
#X obj 1179 720 r tick;
#X obj 1231 661 r tick;
#X obj 284 693 r tick;
#X obj 716 613 r tick;
#X obj 957 612 r tick;
#X obj 1053 429 r currentPos;
#X msg 1053 462 send /video/currentpos \$1;
#X text 1215 172 comment;
#X text 315 53 Ouvrir la bande-son .aiff manuellement;
#X obj 1229 232 s bang;
#X text 1342 187 Lancement d'un metro \; nécessaire pour les \; calculs
afin de prendre \; en compte les nouvelles \; valeurs reçues.;
#X obj 99 52 r bang;
#X text 97 10 Ouverture automatique \; de la bande-son au \; lancement
du patch.;
#X obj 99 108 symbol \$1;
#X msg 99 82 Trailer/Trailer1.aiff;
#X connect 1 0 2 0;
#X connect 3 0 2 0;
#X connect 4 0 6 0;
#X connect 5 0 8 0;
#X connect 6 0 2 0;
#X connect 8 0 9 0;
#X connect 9 0 50 0;
#X connect 9 1 51 0;
#X connect 9 2 52 0;
#X connect 10 0 11 0;
#X connect 11 0 33 0;
#X connect 12 0 13 0;
#X connect 13 0 17 0;
#X connect 13 0 20 0;
#X connect 14 0 15 0;
#X connect 15 0 16 0;
#X connect 16 0 17 1;
#X connect 17 0 18 0;
#X connect 17 0 19 0;
#X connect 18 0 57 0;
#X connect 19 0 21 0;
#X connect 21 0 35 0;
#X connect 21 0 38 0;
#X connect 27 0 28 0;
#X connect 28 0 21 1;
#X connect 33 0 12 0;
#X connect 35 0 30 0;
#X connect 35 0 30 1;
#X connect 36 0 37 0;
#X connect 38 0 41 0;
#X connect 41 0 43 0;
#X connect 42 0 44 0;
#X connect 43 0 47 0;
#X connect 43 0 46 0;
#X connect 44 0 43 1;
#X connect 50 0 53 0;
#X connect 51 0 56 0;
#X connect 52 0 75 0;
#X connect 58 0 59 0;
#X connect 59 0 61 0;
#X connect 59 0 60 0;
#X connect 60 0 62 0;
#X connect 61 0 63 0;
#X connect 62 0 65 0;
#X connect 62 0 73 0;
#X connect 63 0 65 1;
#X connect 63 0 74 0;
#X connect 65 0 66 0;
#X connect 66 0 67 0;
#X connect 67 0 68 0;
#X connect 69 0 71 0;
#X connect 71 0 19 0;
#X connect 76 0 79 0;
#X connect 77 0 78 0;
#X connect 78 0 80 0;
#X connect 79 0 80 1;
#X connect 80 0 86 0;
#X connect 81 0 84 0;
#X connect 82 0 83 0;
#X connect 83 0 85 0;
#X connect 84 0 85 1;
#X connect 85 0 87 0;
#X connect 86 0 88 0;
#X connect 87 0 88 1;
#X connect 88 0 89 0;
#X connect 89 0 94 0;
#X connect 90 0 93 0;
#X connect 91 0 92 0;
#X connect 92 0 93 1;
#X connect 93 0 95 0;
#X connect 95 0 96 1;
#X connect 96 0 99 0;
#X connect 97 0 98 0;
#X connect 98 0 96 0;
#X connect 99 0 102 1;
#X connect 100 0 101 0;
#X connect 101 0 102 0;
#X connect 102 0 103 0;
#X connect 103 0 104 0;
#X connect 107 0 90 0;
#X connect 108 0 109 0;
#X connect 108 0 121 0;
#X connect 109 0 111 0;
#X connect 111 0 110 0;
#X connect 112 0 102 0;
#X connect 113 0 96 0;
#X connect 114 0 38 0;
#X connect 115 0 80 0;
#X connect 116 0 85 0;
#X connect 117 0 118 0;
#X connect 118 0 1 0;
#X connect 123 0 126 0;
#X connect 125 0 33 0;
#X connect 126 0 125 0;
