#N canvas 201 48 875 567 10;
#X declare -lib mrpeach;
#X declare -lib Gem;
#X obj 851 12 import mrpeach;
#X obj 866 166 unpack;
#X text 864 74 Communication avec le patch audio_master \; qui gère
la vitesse de lecture.;
#X obj 612 377 dumpOSC 9002;
#X obj 866 107 dumpOSC 9003;
#X text 609 331 Communication avec l'Application Java. \; Réception
des effets de couleur RGB \; et du zoom.;
#X obj 612 682 unpack f f f;
#X obj 539 305 gemwin;
#X msg 556 214 0 \, destroy;
#X obj 28 57 gemhead;
#X obj 264 55 openpanel;
#X obj 264 32 bng 15 250 50 0 empty empty empty 17 7 0 10 -262144 -1
-1;
#X obj 108 192 unpack f f f;
#X floatatom 108 225 12 0 0 0 - - -;
#X floatatom 190 225 5 0 0 0 - - -;
#X floatatom 230 225 5 0 0 0 - - -;
#X obj 86 605 pix_texture;
#X obj 86 720 rectangle 6 4;
#X msg 264 81 open \$1;
#X obj 86 161 pix_film;
#X obj 612 744 s redCurrent;
#X obj 696 744 s greenCurrent;
#X obj 795 743 s blueCurrent;
#X obj 851 37 declare -lib Gem;
#X obj 866 227 s currentPos;
#X floatatom 866 196 12 0 0 0 - - -;
#X obj 866 137 routeOSC /video/currentpos;
#X obj 395 23 r currentPos;
#X obj 484 23 r frameSize;
#X floatatom 395 54 12 0 0 0 - - -;
#X floatatom 484 54 12 0 0 0 - - -;
#X obj 395 84 *;
#X floatatom 395 111 12 0 0 0 - - -;
#X obj 108 255 s frameSize;
#X obj 689 596 unpack f;
#X obj 689 651 s encryptCurrent;
#X obj 86 361 pix_scanline;
#X obj 188 258 r encryptCurrent;
#X floatatom 188 319 12 0 0 0 - - -;
#X obj 766 543 unpack f;
#X obj 766 595 s lumaoffsetCurrent;
#X obj 86 500 pix_lumaoffset;
#X obj 176 361 r lumaoffsetCurrent;
#X obj 176 391 * 200;
#X floatatom 176 418 12 0 0 0 - - -;
#X floatatom 612 718 12 0 0 0 - - -;
#X floatatom 695 718 12 0 0 0 - - -;
#X floatatom 795 718 12 0 0 0 - - -;
#X floatatom 766 570 12 0 0 0 - - -;
#X floatatom 689 626 12 0 0 0 - - -;
#X msg 86 56 open Trailer/Trailer1.mov;
#X obj 866 257 loadbang;
#X obj 866 288 s bang;
#X obj 539 150 r bang;
#X obj 86 24 r bang;
#X text 922 253 Bang émit au moment \; du chargement du patch.;
#X floatatom 257 450 5 0 0 0 - - -;
#X obj 257 420 r bang;
#X text 302 415 Initialisation à 0 des paramètres \; de lumaoffset
au chargement du patch.;
#X text 296 246 Calcul de la nouvelle valeur \; de pix_encrypt recu
depuis \; l'application java.;
#X text 303 352 Calcul de la nouvelle valeur \; de pix_lumaoffset recu
depuis \; l'application java.;
#X text 285 20 Choisir le .mov \; manuellement.;
#X text 601 143 Créer la fenêtre \; manuellement.;
#X text 564 14 Calcul de la position \; dans la vidéo en fonction
\; de la position dans la \; bande-son. La position \; est reçu du
patch \; audio_slave.pd;
#X msg 539 186 reset \, dimen 1440 1080 \, offset -5 768 \, create
\, 1;
#X obj 188 288 * 800;
#X obj 86 571 colorRGB;
#X obj 97 533 r redCurrent;
#X obj 185 536 r greenCurrent;
#X obj 284 538 r blueCurrent;
#X obj 612 405 routeOSC /video/color /video/encrypt /video/distance
/video/rotation;
#X obj 843 464 unpack f f;
#X floatatom 843 499 12 0 0 0 - - -;
#X floatatom 932 500 12 0 0 0 - - -;
#X obj 843 531 s rollCurrent;
#X obj 932 530 s pitchCurrent;
#X obj 86 683 rotateXYZ;
#X obj 103 647 r rollCurrent;
#X obj 195 648 r pitchCurrent;
#X connect 1 0 25 0;
#X connect 3 0 70 0;
#X connect 4 0 26 0;
#X connect 6 0 45 0;
#X connect 6 1 46 0;
#X connect 6 2 47 0;
#X connect 8 0 7 0;
#X connect 9 0 19 0;
#X connect 10 0 18 0;
#X connect 11 0 10 0;
#X connect 12 0 13 0;
#X connect 12 1 14 0;
#X connect 12 2 15 0;
#X connect 13 0 33 0;
#X connect 16 0 76 0;
#X connect 18 0 19 0;
#X connect 19 0 36 0;
#X connect 19 1 12 0;
#X connect 25 0 24 0;
#X connect 26 0 1 0;
#X connect 27 0 29 0;
#X connect 28 0 30 0;
#X connect 29 0 31 0;
#X connect 30 0 31 1;
#X connect 31 0 32 0;
#X connect 32 0 19 1;
#X connect 34 0 49 0;
#X connect 36 0 41 0;
#X connect 37 0 65 0;
#X connect 38 0 36 1;
#X connect 39 0 48 0;
#X connect 41 0 66 0;
#X connect 42 0 43 0;
#X connect 43 0 44 0;
#X connect 44 0 41 1;
#X connect 45 0 20 0;
#X connect 46 0 21 0;
#X connect 47 0 22 0;
#X connect 48 0 40 0;
#X connect 49 0 35 0;
#X connect 50 0 19 0;
#X connect 51 0 52 0;
#X connect 53 0 64 0;
#X connect 54 0 50 0;
#X connect 56 0 41 1;
#X connect 56 0 41 2;
#X connect 57 0 56 0;
#X connect 64 0 7 0;
#X connect 65 0 38 0;
#X connect 66 0 16 0;
#X connect 67 0 66 1;
#X connect 68 0 66 2;
#X connect 69 0 66 3;
#X connect 70 0 6 0;
#X connect 70 1 34 0;
#X connect 70 2 39 0;
#X connect 70 3 71 0;
#X connect 71 0 72 0;
#X connect 71 1 73 0;
#X connect 72 0 74 0;
#X connect 73 0 75 0;
#X connect 76 0 17 0;
#X connect 77 0 76 1;
#X connect 78 0 76 2;
